<svg xmlns="http://www.w3.org/2000/svg" width="375" viewBox="0 0 375 375" height="375" version="1.0"><defs><clipPath id="a"><path d="M 180 112.5 L 212 112.5 L 212 195 L 180 195 Z M 180 112.5"/></clipPath><clipPath id="b"><path d="M 122.71875 132 L 252.46875 132 L 252.46875 262.5 L 122.71875 262.5 Z M 122.71875 132"/></clipPath></defs><path fill="#008037" d="M 165.402344 201.136719 C 162.574219 201.136719 160.28125 198.84375 160.28125 196.023438 L 160.28125 134.660156 C 160.28125 126.203125 167.171875 119.316406 175.644531 119.316406 C 184.117188 119.316406 191.007812 126.203125 191.007812 134.660156 L 191.007812 189.203125 C 191.007812 192.027344 188.714844 194.316406 185.886719 194.316406 C 183.058594 194.316406 180.765625 192.027344 180.765625 189.203125 L 180.765625 134.660156 C 180.765625 131.84375 178.472656 129.546875 175.644531 129.546875 C 172.816406 129.546875 170.523438 131.84375 170.523438 134.660156 L 170.523438 196.023438 C 170.523438 198.84375 168.230469 201.136719 165.402344 201.136719 Z M 165.402344 201.136719"/><g clip-path="url(#a)"><path fill="#008037" d="M 206.371094 194.316406 C 203.542969 194.316406 201.25 192.027344 201.25 189.203125 L 201.25 127.839844 C 201.25 125.023438 198.957031 122.726562 196.128906 122.726562 C 193.300781 122.726562 191.007812 125.023438 191.007812 127.839844 L 191.007812 139.773438 C 191.007812 142.59375 188.714844 144.886719 185.886719 144.886719 C 183.058594 144.886719 180.765625 142.59375 180.765625 139.773438 L 180.765625 127.839844 C 180.765625 119.386719 187.65625 112.5 196.128906 112.5 C 204.601562 112.5 211.492188 119.386719 211.492188 127.839844 L 211.492188 189.203125 C 211.492188 192.027344 209.199219 194.316406 206.371094 194.316406 Z M 206.371094 194.316406"/></g><path fill="#008037" d="M 226.855469 194.316406 C 224.027344 194.316406 221.734375 192.027344 221.734375 189.203125 L 221.734375 141.476562 C 221.734375 138.660156 219.441406 136.363281 216.613281 136.363281 C 213.785156 136.363281 211.492188 138.660156 211.492188 141.476562 L 211.492188 146.589844 C 211.492188 149.414062 209.199219 151.703125 206.371094 151.703125 C 203.542969 151.703125 201.25 149.414062 201.25 146.589844 L 201.25 141.476562 C 201.25 133.023438 208.140625 126.136719 216.613281 126.136719 C 225.085938 126.136719 231.976562 133.023438 231.976562 141.476562 L 231.976562 189.203125 C 231.976562 192.027344 229.683594 194.316406 226.855469 194.316406 Z M 226.855469 194.316406"/><g clip-path="url(#b)"><path fill="#008037" d="M 220.027344 262.5 L 182.355469 262.5 C 171.191406 262.5 160.617188 256.609375 154.75 247.113281 L 125.152344 199.1875 C 125.144531 199.171875 125.144531 199.164062 125.136719 199.160156 C 123.558594 196.753906 122.726562 193.894531 122.726562 190.910156 C 122.726562 182.453125 129.617188 175.566406 138.089844 175.566406 C 140.910156 175.566406 143.609375 176.304688 145.921875 177.710938 C 146.003906 177.757812 146.085938 177.8125 146.175781 177.851562 L 168.140625 191.6875 C 170.523438 193.207031 171.242188 196.363281 169.730469 198.75 C 168.222656 201.136719 165.054688 201.84375 162.664062 200.34375 L 140.898438 186.628906 C 140.816406 186.578125 140.738281 186.53125 140.664062 186.484375 C 139.953125 186.039062 139.039062 185.796875 138.089844 185.796875 C 135.261719 185.796875 132.96875 188.09375 132.96875 190.910156 C 132.96875 191.851562 133.207031 192.742188 133.632812 193.453125 C 133.679688 193.519531 133.71875 193.589844 133.761719 193.648438 L 163.464844 241.746094 C 167.476562 248.238281 174.714844 252.273438 182.355469 252.273438 L 220.027344 252.273438 C 232.261719 252.273438 242.21875 242.332031 242.21875 230.113281 L 242.21875 148.296875 C 242.21875 145.480469 239.925781 143.183594 237.097656 143.183594 C 234.269531 143.183594 231.976562 145.480469 231.976562 148.296875 C 231.976562 151.117188 229.683594 153.410156 226.855469 153.410156 C 224.027344 153.410156 221.734375 151.117188 221.734375 148.296875 C 221.734375 139.839844 228.625 132.953125 237.097656 132.953125 C 245.570312 132.953125 252.460938 139.839844 252.460938 148.296875 L 252.460938 230.113281 C 252.460938 247.96875 237.910156 262.5 220.027344 262.5 Z M 220.027344 262.5"/></g></svg>