<svg xmlns="http://www.w3.org/2000/svg" width="375" viewBox="0 0 375 375" height="375" version="1.0"><defs><clipPath id="a"><path d="M 112.5 119.34375 L 262.5 119.34375 L 262.5 255.84375 L 112.5 255.84375 Z M 112.5 119.34375"/></clipPath></defs><g clip-path="url(#a)"><path fill="#FFF" d="M 160.238281 119.34375 C 158.480469 119.398438 156.828125 120.089844 155.550781 121.261719 C 146.871094 123.609375 139.789062 130.382812 139.789062 139.820312 L 139.789062 144.03125 L 119.875 165.945312 C 119.769531 166.105469 119.609375 166.210938 119.503906 166.371094 C 114.65625 172.664062 112.527344 180.074219 112.527344 187.59375 C 112.527344 199.484375 119.929688 210.789062 126.636719 220.4375 C 133.132812 229.71875 139.152344 236.382812 139.578125 236.863281 C 149.003906 249.925781 165.242188 255.84375 180.683594 255.84375 L 207.945312 255.84375 C 237.765625 255.84375 262.472656 231.476562 262.472656 201.511719 L 262.472656 153.46875 C 262.472656 144.03125 255.390625 137.257812 246.710938 134.914062 C 245.433594 133.742188 243.78125 133.046875 242.023438 132.992188 C 238.9375 132.992188 236.0625 133.742188 233.453125 135.019531 C 230.257812 127.820312 223.070312 122.757812 214.761719 122.757812 C 213.003906 122.808594 211.355469 123.503906 210.078125 124.675781 C 207.628906 125.367188 205.335938 126.488281 203.261719 127.875 C 200.386719 124.730469 196.5 122.4375 192.1875 121.261719 C 190.90625 120.089844 189.257812 119.398438 187.5 119.34375 C 182.28125 119.34375 177.488281 121.421875 173.867188 124.675781 C 170.246094 121.421875 165.457031 119.34375 160.238281 119.34375 Z M 160.238281 132.992188 C 164.070312 132.992188 167.054688 135.980469 167.054688 139.820312 L 167.054688 160.292969 L 180.683594 160.292969 L 180.683594 139.820312 C 180.683594 135.980469 183.667969 132.992188 187.5 132.992188 C 191.332031 132.992188 194.316406 135.980469 194.316406 139.820312 L 194.316406 160.292969 L 207.945312 160.292969 L 207.945312 143.230469 C 207.945312 139.390625 210.929688 136.40625 214.761719 136.40625 C 218.597656 136.40625 221.578125 139.390625 221.578125 143.230469 L 221.578125 160.292969 L 235.210938 160.292969 L 235.210938 153.46875 C 235.210938 149.628906 238.191406 146.644531 242.023438 146.644531 C 245.859375 146.644531 248.839844 149.628906 248.839844 153.46875 L 248.839844 201.511719 C 248.839844 223.957031 230.417969 242.195312 207.945312 242.195312 L 180.683594 242.195312 C 168.863281 242.195312 156.671875 237.289062 150.652344 228.917969 C 150.492188 228.703125 150.332031 228.492188 150.171875 228.332031 C 150.171875 228.332031 143.996094 221.453125 137.820312 212.601562 C 131.644531 203.804688 126.160156 192.5 126.160156 187.59375 C 126.160156 182.476562 127.332031 178.582031 130.3125 174.691406 L 139.789062 164.238281 L 139.789062 187.59375 L 153.421875 187.59375 L 153.421875 139.820312 C 153.421875 135.980469 156.402344 132.992188 160.238281 132.992188 Z M 160.238281 132.992188"/></g></svg>