<svg xmlns="http://www.w3.org/2000/svg" width="375" viewBox="0 0 375 375" height="375" version="1.0"><defs><clipPath id="a"><path d="M 129.84375 112.5 L 245.34375 112.5 L 245.34375 262.5 L 129.84375 262.5 Z M 129.84375 112.5"/></clipPath></defs><g clip-path="url(#a)"><path d="M 181.820312 112.546875 C 172.300781 112.546875 164.492188 120.339844 164.492188 129.84375 L 164.492188 139.347656 L 162.824219 134.167969 C 162.824219 134.167969 162.417969 133.085938 161.878906 132.1875 C 161.335938 131.332031 160.570312 130.292969 159.441406 129.167969 C 159.441406 129.167969 159.441406 129.167969 159.441406 129.121094 C 152.71875 122.457031 141.621094 122.410156 134.898438 129.121094 C 130.519531 133.539062 129.300781 139.707031 130.476562 145.070312 C 130.476562 145.203125 130.519531 145.339844 130.566406 145.472656 L 145.003906 193.445312 C 143.378906 193.625 141.257812 194.078125 138.820312 195.335938 C 134.535156 197.453125 129.84375 202.859375 129.84375 210.5625 C 129.84375 247.136719 149.46875 262.453125 164.492188 262.453125 L 204.917969 262.453125 C 217.957031 262.453125 228.425781 257.226562 235.238281 249.480469 C 242.050781 241.777344 245.34375 231.824219 245.34375 222.09375 L 245.34375 175.96875 C 245.34375 166.464844 237.539062 158.671875 228.019531 158.671875 C 225.761719 158.671875 223.550781 159.121094 221.566406 159.933594 C 219.535156 152.636719 212.859375 147.140625 204.917969 147.140625 C 202.886719 147.140625 200.949219 147.589844 199.144531 148.222656 L 199.144531 129.84375 C 199.144531 120.339844 191.339844 112.546875 181.820312 112.546875 Z M 181.820312 124.078125 C 185.066406 124.078125 187.59375 126.601562 187.59375 129.84375 L 187.59375 187.5 C 187.59375 197.003906 195.398438 204.796875 204.917969 204.796875 C 207.175781 204.796875 209.386719 204.347656 211.371094 203.535156 C 213.402344 210.832031 220.078125 216.328125 228.019531 216.328125 C 230.050781 216.328125 231.988281 215.878906 233.792969 215.246094 L 233.792969 222.09375 C 233.792969 229.210938 231.3125 236.507812 226.574219 241.914062 C 221.835938 247.273438 214.980469 250.921875 204.917969 250.921875 L 164.492188 250.921875 C 157.546875 250.921875 141.394531 243.175781 141.394531 210.5625 C 141.394531 206.734375 142.476562 206.375 143.964844 205.609375 C 145.453125 204.886719 147.167969 204.796875 147.167969 204.796875 L 170.269531 204.796875 C 173.515625 204.796875 176.042969 207.320312 176.042969 210.5625 C 176.042969 213.804688 173.515625 216.328125 170.269531 216.328125 L 152.945312 216.328125 L 152.945312 227.859375 L 170.269531 227.859375 C 178.164062 227.859375 183.847656 221.914062 185.878906 214.617188 C 186.960938 213.582031 187.59375 212.09375 187.59375 210.5625 C 187.59375 201.058594 179.789062 193.265625 170.269531 193.265625 L 157.003906 193.265625 L 141.753906 142.546875 C 141.304688 140.519531 141.710938 138.671875 143.109375 137.320312 C 145.363281 134.980469 148.929688 134.980469 151.230469 137.320312 C 151.679688 137.769531 151.859375 137.996094 151.953125 138.132812 L 164.765625 177.769531 C 165.621094 180.472656 168.328125 182.140625 171.171875 181.6875 C 173.96875 181.238281 176.042969 178.804688 176.042969 175.96875 L 176.042969 129.84375 C 176.042969 126.601562 178.570312 124.078125 181.820312 124.078125 Z M 204.917969 158.671875 C 208.167969 158.671875 210.695312 161.195312 210.695312 164.4375 L 210.695312 187.5 C 210.695312 190.742188 208.167969 193.265625 204.917969 193.265625 C 201.671875 193.265625 199.144531 190.742188 199.144531 187.5 L 199.144531 164.4375 C 199.144531 161.195312 201.671875 158.671875 204.917969 158.671875 Z M 228.019531 170.203125 C 231.265625 170.203125 233.792969 172.726562 233.792969 175.96875 L 233.792969 199.03125 C 233.792969 202.273438 231.265625 204.796875 228.019531 204.796875 C 224.769531 204.796875 222.242188 202.273438 222.242188 199.03125 L 222.242188 175.96875 C 222.242188 172.726562 224.769531 170.203125 228.019531 170.203125 Z M 228.019531 170.203125"/></g></svg>